<?xml version="1.0" standalone="no"?>
<!DOCTYPE svg PUBLIC "-//W3C//DTD SVG 20010904//EN"
 "http://www.w3.org/TR/2001/REC-SVG-20010904/DTD/svg10.dtd">
<svg version="1.0" xmlns="http://www.w3.org/2000/svg"
 width="1920.000000pt" height="1080.000000pt" viewBox="0 0 1920.000000 1080.000000"
 preserveAspectRatio="xMidYMid meet">

<g transform="translate(0.000000,1080.000000) scale(0.100000,-0.100000)" fill="#000000" stroke="none">
<path d="M1072 8148 c-56 -9 -102 -38 -153 -96 -49 -56 -74 -102 -99 -185
-115 -380 -186 -1026 -197 -1792 -6 -403 1 -594 33 -960 37 -417 121 -928 184
-1115 65 -194 203 -366 359 -448 130 -69 315 -116 514 -132 67 -5 158 -14 202
-20 143 -20 257 9 319 82 40 46 61 113 51 159 -20 92 -101 191 -188 229 -53
24 -193 52 -342 70 -105 12 -187 38 -228 70 -55 44 -67 173 -76 840 -9 600 1
1504 18 1767 6 87 15 244 21 348 12 208 42 529 65 698 16 114 20 274 7 294 -4
6 -47 36 -95 66 -157 99 -295 143 -395 125z"/>
<path d="M10523 7865 c-68 -34 -156 -131 -215 -235 -77 -136 -201 -538 -257
-830 -90 -474 -86 -1079 9 -1517 94 -431 243 -772 467 -1066 184 -240 364
-378 601 -457 160 -54 441 -68 588 -29 96 25 239 91 336 156 131 87 305 276
448 488 89 132 194 361 259 567 42 132 96 358 107 448 10 86 21 89 28 9 11
-122 64 -425 101 -575 65 -270 166 -542 281 -764 127 -243 225 -362 351 -426
56 -28 62 -29 190 -27 125 1 135 3 185 30 140 76 262 263 332 510 14 48 50
205 81 348 30 143 57 265 59 270 2 6 12 -10 22 -35 62 -153 236 -474 338 -625
121 -179 294 -332 434 -386 123 -46 292 -35 399 28 140 82 251 283 312 566 44
201 104 743 123 1111 6 121 15 211 19 200 4 -10 14 -76 23 -145 40 -311 174
-726 318 -984 128 -229 297 -437 449 -555 223 -172 447 -239 763 -227 112 4
143 9 216 34 282 99 493 281 724 621 132 195 257 502 326 801 61 263 64 297
64 676 0 349 0 350 -32 545 -18 107 -40 237 -48 289 -22 141 -90 395 -121 452
-32 59 -57 74 -147 89 -85 13 -133 1 -186 -47 -49 -43 -76 -87 -84 -136 -8
-41 3 -187 35 -485 19 -171 20 -237 16 -555 -4 -380 -11 -445 -67 -695 -32
-144 -106 -361 -159 -464 -99 -195 -271 -407 -371 -458 -60 -30 -169 -38 -243
-16 -197 57 -455 510 -556 976 -61 284 -71 386 -78 755 -5 281 -3 346 16 535
26 252 61 483 97 630 34 137 34 233 0 330 -80 230 -269 352 -431 276 -61 -28
-153 -125 -211 -222 -107 -182 -252 -698 -299 -1063 -8 -69 -17 -126 -19 -128
-1 -2 -15 33 -29 78 -34 103 -74 161 -130 188 -188 91 -376 -113 -406 -439 -5
-63 -13 -236 -16 -385 -11 -515 -61 -1097 -121 -1418 -30 -158 -29 -157 -99
-47 -135 212 -319 588 -440 902 -115 297 -197 442 -283 502 -37 25 -52 29
-146 33 -99 6 -108 4 -160 -21 -98 -48 -146 -132 -190 -336 -41 -186 -134
-537 -208 -780 -28 -91 -55 -180 -60 -199 -5 -18 -13 -29 -18 -25 -19 21 -104
353 -144 564 -65 343 -90 612 -90 975 0 250 6 338 35 525 18 121 -24 241 -121
341 -65 66 -133 103 -216 118 -128 23 -209 -29 -287 -184 -57 -114 -84 -244
-110 -525 -5 -54 -12 -23 -52 228 -60 380 -125 604 -188 645 -24 16 -156 40
-179 33 -7 -2 -25 -7 -41 -10 -37 -9 -104 -70 -129 -120 -19 -38 -20 -52 -15
-191 4 -82 16 -233 27 -335 17 -149 21 -247 21 -505 0 -176 -5 -365 -11 -420
-28 -254 -114 -592 -194 -760 -82 -174 -200 -342 -306 -438 -90 -81 -117 -92
-230 -92 -83 0 -101 3 -145 26 -98 52 -208 192 -309 395 -121 242 -171 388
-221 647 -43 219 -56 357 -62 672 -5 277 -3 320 21 557 28 278 47 401 97 630
l32 147 -16 83 c-54 273 -274 444 -454 353z"/>
<path d="M4270 6927 c-147 -34 -243 -126 -257 -246 -5 -43 1 -61 56 -182 167
-369 250 -745 238 -1084 -9 -234 -51 -406 -148 -601 -102 -206 -248 -361 -413
-440 -126 -61 -212 -55 -315 21 -83 61 -146 161 -219 347 -135 345 -156 717
-66 1168 32 159 113 404 159 478 39 64 45 118 20 178 -61 148 -353 325 -490
300 -119 -23 -366 -482 -479 -891 -73 -268 -102 -511 -93 -789 11 -343 84
-625 230 -898 178 -331 414 -532 726 -616 86 -23 115 -26 271 -26 163 0 181 2
264 27 193 60 354 157 513 311 179 172 300 338 409 561 85 173 167 425 189
578 4 26 9 46 12 44 2 -3 -1 -157 -7 -343 -11 -345 -2 -797 20 -970 20 -159
70 -238 188 -296 60 -30 76 -33 152 -33 122 0 180 34 229 133 35 69 46 221 76
1042 9 223 20 466 26 540 8 111 62 577 72 630 5 25 90 -154 155 -325 263 -695
370 -959 482 -1190 215 -444 473 -647 759 -596 249 45 411 259 466 620 8 52
16 95 18 97 2 2 9 -29 16 -68 16 -91 70 -258 110 -335 84 -165 236 -315 392
-387 214 -99 471 -87 707 33 148 75 348 254 462 413 30 42 58 77 63 77 4 1 7
-16 7 -37 0 -106 63 -483 115 -688 57 -222 138 -395 225 -479 l41 -40 82 1
c126 0 212 47 259 138 30 59 26 131 -15 271 -45 151 -78 301 -117 530 -52 307
-62 449 -67 1025 -4 489 -6 526 -23 545 -10 11 -18 33 -18 49 1 57 -89 96
-222 96 -173 0 -217 -65 -262 -395 -13 -101 -24 -121 -171 -315 -207 -272
-386 -468 -517 -565 -206 -152 -326 -123 -395 97 -40 125 -51 249 -36 396 41
414 254 830 531 1040 111 83 210 106 499 117 251 9 331 28 380 91 51 65 13
196 -87 293 -142 138 -361 199 -613 172 -406 -44 -715 -255 -992 -676 -146
-223 -251 -468 -312 -728 -15 -64 -29 -116 -30 -115 -2 2 -17 136 -34 298 -45
427 -60 541 -87 675 -14 66 -33 174 -44 240 -23 145 -39 193 -87 263 -59 86
-148 123 -227 92 -46 -17 -103 -79 -132 -142 l-28 -63 -7 -290 c-4 -159 -5
-398 -2 -530 5 -215 -6 -572 -24 -759 -8 -84 0 -97 -122 204 -166 408 -194
474 -254 615 -134 316 -330 664 -478 850 -67 84 -178 174 -266 216 -131 63
-306 50 -432 -31 -196 -127 -330 -478 -386 -1006 -16 -157 -25 -192 -25 -103
0 228 -76 622 -185 959 -29 91 -60 190 -69 221 -23 79 -64 132 -128 163 -65
31 -161 41 -238 23z"/>
</g>
</svg>
